PathFileType	4	(X/Y/Z)	E:/New_biomech_experiments/MICROGRAVITY MOCAP/Session 2024-06-22/Neeraj_FullAction_pp_22_06_24_t02 (1).trc	
DataRate	CameraRate	NumFrames	NumMarkers	Units	OrigDataRate	OrigDataStartFrame	OrigNumFrames	
120.00	120.00	10	19	m	120.00	4737	7579	
Frame#	Time	RSHO			MarkerSet_RBAK			MarkerSet_LBHD			MarkerSet_RUPA			MarkerSet_PRSHO			MarkerSet_RELB			MarkerSet_CLAV			MarkerSet_RFHD			MarkerSet_LFHD			MarkerSet_C7			MarkerSet_RWRB			MarkerSet_RFRM			MarkerSet_RWRA			MarkerSet_MRELB			MarkerSet_DIA			MarkerSet_STRN			MarkerSet_ARSHO			MarkerSet_RBHD			MarkerSet_T10			
		X1	Y1	Z1	X2	Y2	Z2	X3	Y3	Z3	X4	Y4	Z4	X5	Y5	Z5	X6	Y6	Z6	X7	Y7	Z7	X8	Y8	Z8	X9	Y9	Z9	X10	Y10	Z10	X11	Y11	Z11	X12	Y12	Z12	X13	Y13	Z13	X14	Y14	Z14	X15	Y15	Z15	X16	Y16	Z16	X17	Y17	Z17	X18	Y18	Z18	X19	Y19	Z19	

4737	39.467	-0.05446	1.59286	0.07486	-0.10472	1.38216	0.04345	-0.03386	1.71489	-0.11117	-0.02140	1.65938	0.22043	-0.10146	1.49584	0.09778	-0.02092	1.74195	0.33029	0.10732	1.49600	-0.05402	0.06137	1.81314	0.03506	0.07990	1.82664	-0.06607	-0.09469	1.52748	-0.05920	-0.02111	1.89542	0.58462	-0.00290	1.83128	0.43559	0.07697	1.89714	0.56838	0.06215	1.67454	0.38259	0.08583	1.19263	0.14021	0.14583	1.33510	-0.02487	0.06439	1.54645	0.07806	-0.06037	1.71516	-0.00966	-0.10652	1.34198	-0.02640 
4738	39.475	-0.05457	1.59281	0.07489	-0.10479	1.38214	0.04351	-0.03406	1.71454	-0.11106	-0.02151	1.65936	0.22050	-0.10227	1.49770	0.09831	-0.02100	1.74191	0.33040	0.10719	1.49601	-0.05407	0.06122	1.81312	0.03508	0.07988	1.82695	-0.06557	-0.09482	1.52748	-0.05917	-0.02123	1.89527	0.58474	-0.00301	1.83119	0.43567	0.07720	1.89735	0.56884	0.06203	1.67445	0.38261	0.08569	1.19261	0.14018	0.14566	1.33483	-0.02503	0.06433	1.54650	0.07808	-0.06018	1.71419	-0.00936	-0.10571	1.34092	-0.02638 
4739	39.483	-0.05467	1.59283	0.07491	-0.10489	1.38214	0.04352	-0.03418	1.71455	-0.11105	-0.02168	1.65933	0.22056	-0.10167	1.49577	0.09782	-0.02127	1.74221	0.33058	0.10708	1.49602	-0.05405	0.06106	1.81314	0.03509	0.07978	1.82693	-0.06553	-0.09496	1.52746	-0.05915	-0.02131	1.89509	0.58483	-0.00312	1.83110	0.43573	0.07669	1.89689	0.56861	0.06194	1.67442	0.38265	0.08560	1.19263	0.14016	0.14561	1.33512	-0.02487	0.06423	1.54644	0.07813	-0.06029	1.71416	-0.00933	-0.10262	1.33717	-0.02640 
4740	39.492	-0.05509	1.59264	0.07487	-0.10499	1.38211	0.04358	-0.03426	1.71491	-0.11113	-0.02174	1.65925	0.22065	-0.10176	1.49576	0.09786	-0.02122	1.74179	0.33052	0.10696	1.49601	-0.05404	0.06089	1.81329	0.03520	0.07980	1.82637	-0.06599	-0.09509	1.52746	-0.05908	-0.02145	1.89496	0.58493	-0.00324	1.83104	0.43584	0.07656	1.89676	0.56875	0.06187	1.67436	0.38271	0.08551	1.19260	0.14015	0.14541	1.33484	-0.02504	0.06413	1.54646	0.07812	-0.06048	1.71419	-0.00931	-0.10227	1.33656	-0.02640 
4741	39.500	-0.05526	1.59262	0.07490	-0.10513	1.38209	0.04357	-0.03441	1.71490	-0.11112	-0.02186	1.65918	0.22070	-0.10185	1.49572	0.09790	-0.02150	1.74208	0.33072	0.10684	1.49603	-0.05405	0.06074	1.81328	0.03523	0.07943	1.82626	-0.06618	-0.09519	1.52745	-0.05902	-0.02159	1.89481	0.58499	-0.00355	1.83102	0.43584	0.07646	1.89664	0.56889	0.06183	1.67432	0.38277	0.08540	1.19258	0.14016	0.14540	1.33512	-0.02485	0.06398	1.54646	0.07817	-0.06069	1.71416	-0.00928	-0.10294	1.33713	-0.02637 
4742	39.508	-0.05506	1.59274	0.07501	-0.10521	1.38211	0.04360	-0.03455	1.71490	-0.11106	-0.02200	1.65915	0.22075	-0.10269	1.49760	0.09848	-0.02148	1.74170	0.33067	0.10674	1.49603	-0.05399	0.06061	1.81329	0.03527	0.07928	1.82627	-0.06617	-0.09534	1.52744	-0.05897	-0.02165	1.89471	0.58515	-0.00354	1.83088	0.43605	0.07629	1.89651	0.56904	0.06172	1.67427	0.38283	0.08534	1.19259	0.14016	0.14520	1.33483	-0.02506	0.06392	1.54647	0.07822	-0.06084	1.71416	-0.00921	-0.10304	1.33709	-0.02633 
4743	39.517	-0.05543	1.59258	0.07500	-0.10535	1.38206	0.04369	-0.03471	1.71492	-0.11104	-0.02211	1.65916	0.22082	-0.10281	1.49756	0.09851	-0.02172	1.74198	0.33088	0.10662	1.49604	-0.05399	0.06046	1.81330	0.03529	0.07937	1.82637	-0.06593	-0.09545	1.52742	-0.05892	-0.02186	1.89457	0.58517	-0.00364	1.83082	0.43612	0.07618	1.89640	0.56917	0.06161	1.67422	0.38289	0.08522	1.19260	0.14015	0.14506	1.33483	-0.02504	0.06380	1.54646	0.07823	-0.06097	1.71414	-0.00915	-0.10314	1.33706	-0.02630 
4744	39.525	-0.05523	1.59277	0.07511	-0.10544	1.38208	0.04374	-0.03482	1.71489	-0.11096	-0.02229	1.65911	0.22085	-0.10212	1.49562	0.09805	-0.02167	1.74159	0.33084	0.10650	1.49607	-0.05397	0.06035	1.81334	0.03533	0.07921	1.82638	-0.06591	-0.09555	1.52740	-0.05885	-0.02199	1.89446	0.58531	-0.00376	1.83072	0.43624	0.07602	1.89630	0.56926	0.06147	1.67417	0.38292	0.08515	1.19257	0.14017	0.14495	1.33485	-0.02502	0.06345	1.54684	0.07826	-0.06120	1.71416	-0.00911	-0.10330	1.33707	-0.02629 
4745	39.533	-0.05571	1.59253	0.07511	-0.10557	1.38207	0.04377	-0.03507	1.71454	-0.11087	-0.02236	1.65908	0.22093	-0.10222	1.49563	0.09810	-0.02193	1.74185	0.33106	0.10640	1.49607	-0.05393	0.06016	1.81332	0.03537	0.07904	1.82637	-0.06589	-0.09568	1.52738	-0.05879	-0.02214	1.89432	0.58543	-0.00390	1.83067	0.43636	0.07589	1.89621	0.56941	0.06141	1.67409	0.38300	0.08503	1.19257	0.14014	0.14492	1.33513	-0.02481	0.06361	1.54642	0.07831	-0.06137	1.71416	-0.00903	-0.10348	1.33709	-0.02628 
4746	39.542	-0.05582	1.59253	0.07513	-0.10563	1.38206	0.04385	-0.03513	1.71477	-0.11100	-0.02247	1.65904	0.22100	-0.10233	1.49561	0.09816	-0.02189	1.74145	0.33100	0.10617	1.49618	-0.05399	0.06007	1.81334	0.03539	0.07890	1.82643	-0.06581	-0.09579	1.52739	-0.05874	-0.02229	1.89423	0.58558	-0.00402	1.83059	0.43644	0.07575	1.89615	0.56952	0.06133	1.67405	0.38306	0.08494	1.19256	0.14013	0.14481	1.33511	-0.02479	0.06325	1.54682	0.07835	-0.06153	1.71415	-0.00897	-0.10361	1.33709	-0.02623 
